<svg width="136" height="158" viewBox="0 0 136 158" fill="none" xmlns="http://www.w3.org/2000/svg">
<path d="M110.425 1.43786C113.834 -1.02601 118.622 -0.273363 120.823 3.31036C130.894 19.7034 136.128 38.6718 135.832 58.0131C135.497 79.9001 128.098 101.093 114.739 118.433C101.379 135.772 82.7735 148.331 61.6955 154.236C43.0689 159.454 23.393 159.229 4.9738 153.672C0.947156 152.457 -1.00147 148.019 0.511726 144.095C2.02492 140.171 6.42672 138.251 10.4691 139.413C25.8082 143.82 42.123 143.901 57.5867 139.569C75.503 134.55 91.3176 123.875 102.673 109.137C114.029 94.3979 120.318 76.384 120.603 57.7801C120.849 41.7229 116.61 25.9682 108.437 12.26C106.283 8.6475 107.016 3.90172 110.425 1.43786Z" fill="#3B94FF"/>
</svg>
