<svg width="79" height="151" viewBox="0 0 79 151" fill="none" xmlns="http://www.w3.org/2000/svg">
<path d="M78.4522 145.4C77.4394 149.462 73.3137 151.961 69.3389 150.647C56.2556 146.321 44.1683 139.356 33.8393 130.154C21.6197 119.268 12.2263 105.577 6.46652 90.2592C0.70675 74.9409 -1.24712 58.4531 0.772844 42.2129C2.48029 28.4853 6.9839 15.2818 13.9757 3.40724C16.0998 -0.200294 20.8502 -1.03834 24.2885 1.35011C27.7267 3.73857 28.5455 8.44763 26.4693 12.083C20.8514 21.9197 17.2217 32.7934 15.8173 44.0842C14.1003 57.8883 15.7611 71.903 20.6569 84.9235C25.5527 97.944 33.5371 109.581 43.9238 118.834C52.4193 126.402 62.3141 132.191 73.0213 135.889C76.9783 137.256 79.465 141.338 78.4522 145.4Z" fill="#22C55E"/>
</svg>
